<?xml version="1.0" standalone="no"?>
<!DOCTYPE svg PUBLIC "-//W3C//DTD SVG 20010904//EN"
 "http://www.w3.org/TR/2001/REC-SVG-20010904/DTD/svg10.dtd">
<svg version="1.0" xmlns="http://www.w3.org/2000/svg"
 width="242.000000pt" height="242.000000pt" viewBox="0 0 242.000000 242.000000"
 preserveAspectRatio="xMidYMid meet">
<metadata>
Created by potrace 1.11, written by Peter Selinger 2001-2013
</metadata>
<g transform="translate(0.000000,242.000000) scale(0.100000,-0.100000)"
fill="#000000" stroke="none">
<path d="M1120 2130 c-84 -10 -220 -50 -295 -88 -244 -123 -423 -356 -482
-627 -16 -73 -22 -282 -9 -322 7 -23 7 -23 -104 -23 l-111 0 7 -37 c35 -193
131 -390 262 -535 l34 -38 168 0 167 0 85 -40 c226 -106 489 -112 727 -18 41
16 83 36 95 44 16 11 57 14 185 14 138 0 168 3 185 17 12 9 -11 -16 -50 -54
-87 -86 -168 -142 -290 -200 -142 -67 -259 -94 -449 -103 l-160 -8 175 3 c146
2 189 6 260 25 464 124 788 509 828 982 5 51 5 127 2 168 -7 72 -7 70 -9 -45
-2 -104 -16 -242 -20 -192 -1 15 -13 17 -104 17 l-104 0 9 63 c13 84 2 227
-23 323 -115 438 -528 723 -979 674z m310 -41 c176 -40 356 -153 476 -297 63
-76 145 -236 169 -331 78 -309 -9 -629 -233 -849 -342 -339 -895 -337 -1236 4
-423 423 -307 1136 229 1406 179 91 388 114 595 67z m887 -1091 c-3 -7 -5 -2
-5 12 0 14 2 19 5 13 2 -7 2 -19 0 -25z"/>
<path d="M1139 1983 l-12 -58 -23 53 c-23 50 -49 68 -59 40 -2 -7 -5 -48 -7
-90 -3 -69 -1 -78 14 -78 14 0 18 8 18 40 0 49 11 51 33 5 9 -19 23 -35 31
-35 14 0 17 6 31 65 l7 30 12 -40 c7 -25 18 -41 30 -43 21 -4 20 12 -10 113
-11 41 -20 55 -34 55 -15 0 -21 -13 -31 -57z"/>
<path d="M1345 1968 c-8 -28 -15 -61 -15 -73 0 -48 71 -73 102 -37 17 19 45
128 35 138 -16 16 -34 -9 -46 -60 -10 -44 -16 -56 -32 -56 -23 0 -23 8 -4 80
8 30 15 56 15 58 0 1 -9 2 -20 2 -15 0 -23 -12 -35 -52z"/>
<path d="M823 1934 c-3 -8 0 -34 6 -56 7 -22 11 -42 9 -44 -2 -2 -21 10 -41
27 -43 35 -73 33 -63 -4 10 -41 57 -137 67 -137 18 0 20 28 5 59 -23 44 -20
46 20 13 58 -48 76 -24 48 66 -3 9 7 2 23 -16 29 -33 47 -40 59 -21 6 11 -102
129 -119 129 -4 0 -10 -7 -14 -16z"/>
<path d="M1594 1892 c-83 -111 -78 -101 -58 -109 13 -5 25 3 46 27 l28 34 0
-61 c0 -41 4 -62 13 -66 17 -6 110 120 103 139 -9 22 -21 16 -49 -23 l-27 -38
0 62 c0 77 -17 87 -56 35z"/>
<path d="M1047 1716 c-193 -70 -323 -243 -335 -446 -8 -161 36 -280 147 -390
106 -105 214 -150 361 -150 162 0 318 80 409 209 22 33 41 62 41 65 0 3 -31 6
-70 6 -69 0 -70 0 -115 -46 -25 -25 -76 -60 -113 -77 -59 -28 -77 -32 -152
-31 -120 0 -185 27 -271 113 -86 86 -113 151 -113 271 -1 75 3 93 31 152 40
85 106 151 191 191 60 29 76 32 157 32 118 -1 183 -26 262 -101 l58 -54 67 0
c38 0 68 4 68 9 0 23 -96 136 -150 175 -94 69 -155 89 -290 93 -102 3 -123 1
-183 -21z"/>
<path d="M1764 1691 c-50 -38 -60 -51 -53 -64 8 -14 19 -10 79 34 45 33 67 55
63 65 -8 22 -24 16 -89 -35z"/>
<path d="M575 1718 c-32 -18 -44 -40 -44 -78 0 -84 91 -119 151 -60 26 27 30
36 25 68 -11 65 -78 101 -132 70z m80 -48 c28 -31 10 -74 -32 -78 -25 -3 -35
2 -49 22 -15 24 -15 28 0 51 20 31 56 33 81 5z"/>
<path d="M1895 1610 c-3 -5 -3 -15 0 -20 4 -7 -19 -22 -54 -38 -64 -28 -66
-29 -53 -50 7 -10 21 -7 66 14 46 21 60 24 72 13 11 -9 18 -9 26 -1 8 8 7 22
-7 52 -17 39 -37 51 -50 30z"/>
<path d="M441 1444 c-33 -41 -29 -96 10 -128 17 -14 43 -26 58 -26 62 0 106
70 81 130 -17 42 -42 29 -34 -19 7 -46 -21 -77 -60 -67 -39 10 -50 39 -30 82
22 47 5 67 -25 28z"/>
<path d="M1003 1448 l27 -10 0 -118 0 -118 -65 -53 c-36 -29 -65 -54 -65 -56
0 -1 29 15 65 37 l65 40 0 -61 c0 -52 -3 -62 -20 -66 -43 -11 -16 -18 75 -19
52 0 95 3 95 8 0 4 -11 8 -24 8 -14 0 -27 4 -30 8 -3 5 -8 45 -12 88 l-7 80
59 25 59 25 58 -25 57 -26 0 -62 c0 -71 -13 -113 -35 -113 -8 0 -15 -3 -15 -8
0 -4 43 -8 95 -8 52 0 95 3 95 7 0 4 -12 9 -27 11 -27 3 -28 6 -31 66 l-3 62
71 -45 c38 -25 70 -43 70 -41 0 2 -33 29 -72 60 l-73 57 5 117 c5 112 6 117
30 129 22 11 12 13 -75 12 -79 0 -94 -3 -72 -11 27 -10 27 -11 27 -95 l0 -85
-50 42 c-28 23 -56 40 -63 37 -6 -2 -39 -26 -72 -53 -33 -26 -52 -39 -42 -28
13 16 17 39 17 96 0 74 1 77 28 86 21 8 6 10 -73 10 -79 0 -94 -2 -72 -10z
m368 -205 c13 -16 12 -17 -3 -4 -17 13 -22 21 -14 21 2 0 10 -8 17 -17z"/>
<path d="M1954 1391 c-21 -16 -56 -32 -77 -36 -28 -5 -37 -11 -33 -22 3 -8 6
-16 6 -18 0 -2 15 -1 33 2 18 3 57 -2 87 -11 29 -9 55 -16 56 -16 1 0 0 9 -3
20 -3 11 -16 23 -29 26 -29 7 -31 20 -4 34 19 10 29 50 12 50 -4 0 -26 -13
-48 -29z"/>
<path d="M478 1163 c14 -190 97 -363 238 -492 37 -33 70 -61 73 -61 3 0 12 9
19 20 11 18 6 26 -54 83 -126 117 -207 279 -221 440 -6 65 -7 67 -33 67 -26 0
-27 -1 -22 -57z"/>
<path d="M1180 1180 l0 -40 40 0 40 0 0 40 0 40 -40 0 -40 0 0 -40z"/>
<path d="M1902 1140 c-14 -99 -50 -203 -94 -277 -34 -56 -134 -168 -176 -196
-21 -13 -22 -17 -10 -36 7 -12 16 -21 19 -21 4 0 32 20 62 45 137 111 238 308
254 492 6 73 6 73 -19 73 -24 0 -26 -4 -36 -80z"/>
<path d="M1547 733 c-13 -12 -7 -44 8 -49 8 -4 22 -1 30 6 17 14 21 35 5 25
-6 -3 -7 1 -4 9 4 11 0 16 -13 16 -11 0 -23 -3 -26 -7z"/>
<path d="M849 626 c-17 -44 -33 -86 -36 -92 -2 -6 6 -14 17 -17 18 -5 25 1 37
32 15 37 16 38 45 27 30 -11 30 -10 12 -72 -4 -15 0 -23 12 -28 9 -3 18 -5 20
-3 11 10 71 177 66 181 -15 16 -41 3 -51 -24 -11 -34 -11 -34 -46 -18 -16 7
-24 17 -20 26 17 45 16 59 -4 65 -18 4 -25 -6 -52 -77z"/>
<path d="M1424 668 l-42 -21 39 -81 c22 -45 46 -82 53 -84 18 -4 88 31 105 52
18 22 10 69 -15 81 -11 6 -19 15 -17 22 3 7 -1 21 -7 32 -14 27 -61 27 -116
-1z m86 -28 c0 -5 -12 -17 -26 -26 -22 -15 -27 -15 -35 -3 -6 9 -3 18 8 27 20
14 53 16 53 2z m37 -67 c3 -7 -8 -20 -23 -29 -25 -17 -27 -17 -41 2 -13 17
-12 20 14 31 31 13 45 12 50 -4z"/>
<path d="M1130 547 c0 -97 14 -117 80 -117 61 0 80 22 80 95 0 69 -9 95 -31
95 -17 0 -19 -8 -19 -74 0 -56 -4 -75 -15 -80 -38 -14 -55 20 -55 110 0 37 -3
44 -20 44 -18 0 -20 -7 -20 -73z"/>
<path d="M2321 1454 c0 -11 3 -14 6 -6 3 7 2 16 -1 19 -3 4 -6 -2 -5 -13z"/>
<path d="M2332 1395 c0 -16 2 -22 5 -12 2 9 2 23 0 30 -3 6 -5 -1 -5 -18z"/>
<path d="M998 133 c7 -3 16 -2 19 1 4 3 -2 6 -13 5 -11 0 -14 -3 -6 -6z"/>
<path d="M1048 123 c6 -2 18 -2 25 0 6 3 1 5 -13 5 -14 0 -19 -2 -12 -5z"/>
</g>
</svg>
